<svg xmlns="http://www.w3.org/2000/svg" viewBox="0 0 480 320">
<rect width="480" height="320" fill="#1a2b3d" rx="12"/>
<rect x="20" y="20" width="440" height="280" fill="#f4f6f8" rx="6"/>
<rect x="20" y="20" width="440" height="36" fill="#0F3D63" rx="6"/>
<rect x="20" y="44" width="440" height="12" fill="#0F3D63"/>
<text x="36" y="44" font-family="Arial,sans-serif" font-size="15" font-weight="700" fill="#fff">UNV</text>
<rect x="380" y="30" width="65" height="18" rx="3" fill="#2a4a68"/>
<text x="412" y="43" text-anchor="middle" font-family="Arial,sans-serif" font-size="9" fill="#cbd8e6">English ▾</text>
<circle cx="240" cy="140" r="26" fill="#CBD3DC"/>
<path d="M225,155 q15,-18 30,0 Z" fill="#CBD3DC"/>
<text x="120" y="205" font-family="Arial,sans-serif" font-size="11" fill="#333">Username</text>
<rect x="200" y="193" width="160" height="20" rx="3" fill="#fff" stroke="#CBD3DC"/>
<text x="120" y="235" font-family="Arial,sans-serif" font-size="11" fill="#333">Password</text>
<rect x="200" y="223" width="160" height="20" rx="3" fill="#fff" stroke="#CBD3DC"/>
<text x="365" y="235" font-family="Arial,sans-serif" font-size="8" fill="#1C6DD0">Forgot Password</text>
<rect x="195" y="260" width="70" height="22" rx="4" fill="#1C6DD0"/>
<text x="230" y="275" text-anchor="middle" font-family="Arial,sans-serif" font-size="10" fill="#fff">Login</text>
<rect x="275" y="260" width="70" height="22" rx="4" fill="#e2e6ea" stroke="#CBD3DC"/>
<text x="310" y="275" text-anchor="middle" font-family="Arial,sans-serif" font-size="10" fill="#555">Reset</text>
</svg>
