<svg xmlns="http://www.w3.org/2000/svg" viewBox="0 0 480 280">
<rect width="480" height="280" fill="#E4EEFB" rx="14"/>
<rect x="150" y="60" width="180" height="160" rx="30" fill="#0F3D63"/>
<circle cx="240" cy="155" r="52" fill="#1C6DD0" opacity=".3"/>
<circle cx="240" cy="155" r="35" fill="#1C6DD0" opacity=".5"/>
<circle cx="240" cy="155" r="18" fill="#E8A33D"/>
<circle cx="240" cy="100" r="12" fill="#fff" opacity=".8"/>
<g stroke="#E8A33D" stroke-width="2" fill="none" opacity=".6">
  <path d="M170 155 Q160 130 170 105"/><path d="M160 155 Q145 120 160 85"/>
  <path d="M310 155 Q320 130 310 105"/><path d="M320 155 Q335 120 320 85"/>
</g>
<rect x="60" y="100" width="70" height="22" rx="4" fill="#fff" opacity=".8"/>
<text x="95" y="115" text-anchor="middle" font-family="Arial" font-size="9" fill="#0F3D63">IPX7 ✓</text>
<rect x="60" y="135" width="70" height="22" rx="4" fill="#fff" opacity=".8"/>
<text x="95" y="150" text-anchor="middle" font-family="Arial" font-size="9" fill="#0F3D63">20h Battery</text>
<rect x="60" y="170" width="70" height="22" rx="4" fill="#fff" opacity=".8"/>
<text x="95" y="185" text-anchor="middle" font-family="Arial" font-size="9" fill="#0F3D63">BT 5.0 ✓</text>
<rect x="350" y="100" width="70" height="22" rx="4" fill="#E8A33D" opacity=".8"/>
<text x="385" y="115" text-anchor="middle" font-family="Arial" font-size="9" fill="#0F3D63">360° Sound</text>
<rect x="350" y="135" width="70" height="22" rx="4" fill="#E8A33D" opacity=".8"/>
<text x="385" y="150" text-anchor="middle" font-family="Arial" font-size="9" fill="#0F3D63">USB-C ✓</text>
<rect x="350" y="170" width="70" height="22" rx="4" fill="#E8A33D" opacity=".8"/>
<text x="385" y="185" text-anchor="middle" font-family="Arial" font-size="9" fill="#0F3D63">Stereo Pair</text>
</svg>