<svg xmlns="http://www.w3.org/2000/svg" viewBox="0 0 480 280">
<rect width="480" height="280" fill="#E4EEFB" rx="14"/>
<rect x="120" y="70" width="240" height="130" rx="16" fill="#0F3D63"/>
<rect x="360" y="110" width="14" height="50" rx="7" fill="#0F3D63"/>
<rect x="130" y="80" width="220" height="110" rx="10" fill="#1C6DD0" opacity=".25"/>
<rect x="148" y="98" width="80" height="70" rx="6" fill="#fff" opacity=".9"/>
<text x="188" y="128" text-anchor="middle" font-family="Arial" font-weight="bold" font-size="13" fill="#0F3D63">10,000</text>
<text x="188" y="145" text-anchor="middle" font-family="Arial" font-size="9" fill="#6B7785">mAh</text>
<rect x="148" y="178" width="80" height="8" rx="4" fill="#E8A33D"/>
<rect x="248" y="98" width="90" height="30" rx="6" fill="#E8A33D" opacity=".15"/>
<text x="293" y="118" text-anchor="middle" font-family="Arial" font-size="9" fill="#0F3D63">USB-C PD 20W</text>
<rect x="248" y="138" width="90" height="30" rx="6" fill="#1C6DD0" opacity=".15"/>
<text x="293" y="158" text-anchor="middle" font-family="Arial" font-size="9" fill="#0F3D63">USB-A 18W</text>
<circle cx="100" cy="140" r="36" fill="#E8A33D" opacity=".2"/>
<text x="100" y="135" text-anchor="middle" font-family="Arial" font-weight="bold" font-size="11" fill="#0F3D63">Fast</text>
<text x="100" y="151" text-anchor="middle" font-family="Arial" font-size="9" fill="#0F3D63">Charge</text>
<circle cx="380" cy="180" r="28" fill="#1C6DD0" opacity=".15"/>
<text x="380" y="175" text-anchor="middle" font-family="Arial" font-size="9" fill="#0F3D63">IP67</text>
<text x="380" y="189" text-anchor="middle" font-family="Arial" font-size="8" fill="#6B7785">safe</text>
</svg>